<?xml version="1.0" encoding="UTF-8"?><svg id="Layer_1" xmlns="http://www.w3.org/2000/svg" xmlns:xlink="http://www.w3.org/1999/xlink" viewBox="0 0 60 60"><defs><style>.cls-1{clip-path:url(#clippath);}.cls-2{fill:none;}.cls-2,.cls-3,.cls-4{stroke-width:0px;}.cls-3{fill:#fff;isolation:isolate;opacity:.2;}.cls-4{fill:#202f4d;}</style><clipPath id="clippath"><rect class="cls-2" x="20.12" y="20.15" width="20" height="19.93" transform="translate(-12.48 30.12) rotate(-45)"/></clipPath></defs><rect id="Rectangle_117" class="cls-3" y="0" width="60" height="60" rx="8" ry="8"/><g id="Group_252"><g class="cls-1"><g id="Group_252-2"><path id="Path_52" class="cls-4" d="m35,21.95l-.68.68c-.3.3-.3.79,0,1.1h0s3.83,3.83,3.83,3.83c.3.3.3.8,0,1.1-.15.15-.34.23-.55.23h-17.17s-1.24,0-1.24,0h-.12s-1.49,0-1.49,0c-.43,0-.78.34-.78.77,0,0,0,0,0,0v.95c0,.43.34.78.77.78,0,0,0,0,0,0h1.94s17.99,0,17.99,0c.43,0,.78.35.78.78,0,.21-.08.4-.23.55l-3.73,3.73c-.3.3-.3.8,0,1.1h0s.68.68.68.68c.3.3.79.3,1.1,0l7.59-7.59c.3-.3.3-.8,0-1.1h0s-7.59-7.59-7.59-7.59c-.3-.3-.79-.3-1.1,0h0"/></g></g></g></svg>