<?xml version="1.0" encoding="UTF-8"?><svg id="Layer_1" xmlns="http://www.w3.org/2000/svg" viewBox="0 0 19 19"><defs><style>.cls-1{fill:#75ccdd;}.cls-1,.cls-2{stroke-width:0px;}.cls-2{fill:#fff;}</style></defs><g id="Path_53-2"><path class="cls-1" d="m9.5.05C14.72.05,18.95,4.28,18.95,9.5s-4.23,9.45-9.45,9.45S.05,14.72.05,9.5,4.28.05,9.5.05Z"/></g><path class="cls-2" d="m10.24,9.5l2.89-2.89c.21-.21.21-.54,0-.74s-.54-.21-.74,0l-2.89,2.89-2.89-2.89c-.21-.21-.54-.21-.74,0s-.21.54,0,.74l2.89,2.89-2.89,2.89c-.21.21-.21.54,0,.74.1.1.24.15.37.15s.27-.05.37-.15l2.89-2.89,2.89,2.89c.1.1.24.15.37.15s.27-.05.37-.15c.21-.21.21-.54,0-.74l-2.89-2.89Z"/></svg>