<?xml version="1.0" encoding="UTF-8"?><svg id="Layer_1" xmlns="http://www.w3.org/2000/svg" viewBox="0 0 21 21"><defs><style>.cls-1{opacity:.4;}.cls-2{fill:#202f4d;stroke-width:0px;}</style></defs><g id="Group_7437" class="cls-1"><path class="cls-2" d="m14,0h0s.02,0,.02,0c0,0-.02,0-.02,0Z"/><path class="cls-2" d="m20.98,6.76c-.12-.98-.94-1.75-1.95-1.76,0,0-.02,0-.02,0h-3v-3c0-.08-.01-.16-.02-.24C15.86.78,15.04.01,14.02,0c0,0-.02,0-.02,0H2C.9,0,0,.9,0,2v12c0,1.1.9,2,2,2h3v3c0,1.1.9,2,2,2h12s.02,0,.02,0c1.01-.01,1.83-.78,1.95-1.76,0-.08.02-.16.02-.24V7c0-.08-.01-.16-.02-.24ZM2,14.2c-.11,0-.2-.09-.2-.2V2c0-.11.09-.2.2-.2h12c.11,0,.2.09.2.2v12c0,.11-.09.2-.2.2H2Zm17.2,4.8c0,.11-.09.2-.2.2H7c-.11,0-.2-.09-.2-.2v-3h7.2s.02,0,.02,0c1.01-.01,1.84-.78,1.95-1.76,0-.08.02-.16.02-.24v-7.2h3c.11,0,.2.09.2.2v12Z"/></g></svg>