<?xml version="1.0" encoding="UTF-8"?><svg id="Layer_1" xmlns="http://www.w3.org/2000/svg" viewBox="0 0 19.21 18.93"><defs><style>.cls-1{fill:#75ccdd;stroke-width:0px;}</style></defs><g id="Group_189"><path id="Path_35" class="cls-1" d="m15.7,18.93H2.6C1.16,18.93,0,17.76,0,16.33h0V3.23C0,1.79,1.16.62,2.6.62c0,0,0,0,0,0h8.26c.47,0,.86.38.86.86s-.38.86-.86.86H2.6c-.49,0-.89.4-.89.89,0,0,0,0,0,0v13.1c0,.49.4.89.89.89h13.1c.49,0,.89-.4.89-.89v-8.18c0-.47.38-.86.86-.86s.86.38.86.86v8.17c0,1.44-1.16,2.6-2.6,2.6h0"/><path id="Path_36" class="cls-1" d="m18.83,1.19l-.78-.8c-.52-.51-1.36-.53-1.9-.03L7.87,8.41c-.36.37-.65.79-.87,1.25l-.82,1.81c-.17.31-.16.69.02.99.16.25.44.39.74.39.16,0,.33-.04.48-.1l1.83-.76c.47-.21.9-.49,1.27-.84L18.8,3.1c.53-.52.55-1.37.03-1.9,0,0,0,0,0,0m-1.04.93l-8.24,8c-.25.22-.53.41-.84.55l-.78.32.35-.77c.15-.3.34-.58.57-.82L17.08,1.41l.69.72Z"/></g></svg>