<?xml version="1.0" encoding="UTF-8"?><svg id="Layer_1" xmlns="http://www.w3.org/2000/svg" viewBox="0 0 16.01 20"><defs><style>.cls-1{fill:#75cadb;stroke-width:0px;}</style></defs><path id="Path_240" class="cls-1" d="m8.01,20c-.41,0-.78-.28-.87-.69l-.45-1.84c-.75-3.11-3.05-5.61-6.08-6.62-.47-.16-.72-.68-.55-1.15.09-.26.29-.46.55-.55,3.03-1.02,5.33-3.52,6.08-6.62l.45-1.84c.12-.48.61-.78,1.09-.65.32.08.57.33.65.65l.45,1.84c.75,3.11,3.05,5.61,6.08,6.62.47.16.72.68.55,1.15-.09.26-.29.46-.55.55-3.03,1.02-5.33,3.52-6.08,6.62l-.45,1.84c-.1.4-.46.69-.87.69"/></svg>