<?xml version="1.0" encoding="UTF-8"?><svg id="Layer_1" xmlns="http://www.w3.org/2000/svg" viewBox="0 0 18 18"><defs><style>.cls-1{opacity:.4;}.cls-2{fill:#fff;stroke-width:0px;}</style></defs><g id="Group_7436" class="cls-1"><path id="Path_246" class="cls-2" d="m16.32,15.44c0,.49-.39.88-.88.88H2.56c-.49,0-.88-.39-.88-.88V2.56c0-.48.39-.88.88-.88,0,0,0,0,0,0h3.89c.23,0,.42-.19.42-.42h0V.42C6.88.19,6.69,0,6.46,0c0,0,0,0,0,0h-3.9C1.15,0,0,1.15,0,2.56H0v12.87c0,1.41,1.14,2.56,2.56,2.56,0,0,0,0,0,0h12.87c1.41,0,2.56-1.14,2.56-2.56,0,0,0,0,0,0v-3.9c0-.23-.19-.42-.42-.42h-.84c-.23,0-.42.19-.42.42v3.9Z"/><path id="Path_247" class="cls-2" d="m11.03,1.52h3.28c.26,0,.47.21.47.47,0,.12-.05.24-.14.33l-7.36,7.36-.53.53-.05.05h0l-.65.65c-.18.18-.18.48,0,.66l.41.41c.18.18.48.18.67,0,0,0,0,0,0,0l.83-.83h0l7.7-7.7c.18-.18.48-.18.67,0,.09.09.14.21.14.33v3.18c0,.26.21.47.47.47h.58c.26,0,.47-.21.47-.47V.47c0-.26-.21-.47-.47-.47,0,0,0,0,0,0h-6.5c-.26,0-.47.21-.47.47v.58c0,.26.21.47.47.47"/></g></svg>