<?xml version="1.0" encoding="UTF-8"?><svg id="Layer_1" xmlns="http://www.w3.org/2000/svg" xmlns:xlink="http://www.w3.org/1999/xlink" viewBox="0 0 9.2 9.2"><defs><style>.cls-1{clip-path:url(#clippath);}.cls-2{fill:none;}.cls-2,.cls-3{stroke-width:0px;}.cls-3{fill:#fff;}</style><clipPath id="clippath"><rect class="cls-2" x="0" y="0" width="9.2" height="9.2"/></clipPath></defs><g class="cls-1"><g id="Group_340"><path id="Path_72" class="cls-3" d="m8.79,3.92h-3.05c-.25,0-.46-.21-.46-.46V.41C5.28.18,5.09,0,4.87,0c0,0,0,0,0,0h-.54c-.22,0-.41.18-.41.4,0,0,0,0,0,0v3.05c0,.25-.21.46-.46.46H.41C.18,3.92,0,4.1,0,4.33c0,0,0,0,0,0v.54c0,.22.18.41.4.41,0,0,0,0,0,0h3.05c.25,0,.46.21.46.46v3.05c0,.22.18.41.4.41,0,0,0,0,0,0h.54c.22,0,.41-.18.41-.41v-3.05c0-.25.21-.46.46-.46h3.05c.22,0,.41-.18.41-.4,0,0,0,0,0,0v-.54c0-.22-.18-.41-.41-.41"/></g></g></svg>