<?xml version="1.0" encoding="UTF-8"?><svg id="Layer_1" xmlns="http://www.w3.org/2000/svg" viewBox="0 0 25 25"><defs><style>.cls-1{fill:#536b7e;}.cls-1,.cls-2{stroke-width:0px;}.cls-2{fill:#fff;}</style></defs><circle id="Ellipse_25" class="cls-1" cx="12.5" cy="12.5" r="12"/><path class="cls-2" d="m13.02,13.02h4.08c.29,0,.52-.23.52-.52s-.23-.52-.52-.52h-4.08s0-4.08,0-4.08c0-.29-.23-.52-.52-.52s-.52.23-.52.52v4.08s-4.08,0-4.08,0c-.29,0-.52.23-.52.52,0,.15.06.28.15.37s.23.15.37.15h4.08s0,4.08,0,4.08c0,.15.06.28.15.37s.23.15.37.15c.29,0,.52-.23.52-.52v-4.08Z"/></svg>