<?xml version="1.0" encoding="UTF-8"?><svg id="Layer_1" xmlns="http://www.w3.org/2000/svg" viewBox="0 0 23.76 20.26"><defs><style>.cls-1{fill:#75cadb;stroke-width:0px;}</style></defs><rect class="cls-1" x="15.1" y="11.99" width="1.44" height="3.25" rx=".34" ry=".34"/><path class="cls-1" d="m21.95,7.01v-.03h-9.61v-.86C12.34,2.74,9.6,0,6.22,0,2.84,0,.1,2.74.1,6.12v.86h1.44v-.86c0-2.58,2.1-4.67,4.68-4.68,2.58,0,4.67,2.1,4.68,4.68v.86h-1.19v.03c-1.05.16-1.83,1.07-1.83,2.13v8.95c0,1.2.97,2.16,2.17,2.17h11.55c1.2,0,2.16-.97,2.17-2.17v-8.95c0-1.06-.77-1.96-1.81-2.13Zm.37,11.08c0,.4-.32.72-.72.72h-11.55c-.4,0-.72-.32-.72-.72v-8.95c0-.4.32-.72.72-.72h11.55c.4,0,.72.32.72.72v8.95Z"/></svg>