<?xml version="1.0" encoding="UTF-8"?><svg id="Layer_1" xmlns="http://www.w3.org/2000/svg" viewBox="0 0 69 30"><defs><style>.cls-1{opacity:.2;}.cls-2{fill:#383b43;}.cls-2,.cls-3{stroke-width:0px;}.cls-3{fill:#fff;}</style></defs><g id="Group_271"><g id="Rectangle_125"><path class="cls-2" d="m15,0h39c8.28,0,15,6.72,15,15h0c0,8.28-6.72,15-15,15H15C6.72,30,0,23.28,0,15h0C0,6.72,6.72,0,15,0Z"/></g><polygon class="cls-3" points="39 15 35 15 35 11 34 11 34 15 30 15 30 16 34 16 34 20 35 20 35 16 39 16 39 15"/></g><g class="cls-1"><path class="cls-3" d="m51.01,30v-1h2.99l.02.81v.19s-3.01,0-3.01,0Zm-3.02,0h-3.02v-1h3.02v1Zm-6.04,0h-3.02v-1h3.02v1Zm-6.04,0h-3.02v-1h3.02v1Zm-6.04,0h-3.02v-1h3.02v1Zm-6.04,0h-3.02v-1h3.02v1Zm-6.04,0h-3.03s.01-1,.01-1h3.01v1Zm39.33-.33l-.21-.98c.95-.2,1.88-.5,2.77-.9l.41.91c-.95.42-1.95.75-2.96.96Zm-45.45-.04c-1.02-.23-2.01-.57-2.95-1l.42-.91c.88.41,1.81.72,2.75.94l-.22.98Zm51.12-2.48l-.59-.81c.79-.57,1.51-1.22,2.17-1.94l.74.67c-.7.77-1.48,1.47-2.32,2.08Zm-56.75-.12c-.83-.62-1.6-1.33-2.29-2.11l.75-.66c.64.73,1.36,1.39,2.14,1.97l-.6.8Zm60.91-4.48l-.86-.5c.49-.84.89-1.73,1.2-2.65l.95.31c-.33.99-.76,1.94-1.28,2.84Zm-65.02-.17c-.51-.91-.93-1.87-1.25-2.86l.95-.3c.29.92.68,1.82,1.16,2.67l-.87.49Zm66.97-5.71l-.99-.11c.06-.52.09-1.04.09-1.56,0-.46-.02-.91-.06-1.35l1-.09c.04.48.07.96.07,1.44,0,.56-.03,1.12-.09,1.67ZM.07,16.48C.02,15.99,0,15.49,0,15,0,14.46.03,13.91.09,13.36l.99.11c-.05.51-.08,1.03-.08,1.53,0,.46.02.92.07,1.38l-1,.1Zm67.29-5.67c-.29-.92-.68-1.82-1.16-2.67l.87-.49c.51.91.93,1.87,1.24,2.86l-.95.3Zm-65.66-.18l-.95-.31c.32-.99.75-1.94,1.28-2.84l.87.5c-.49.84-.89,1.73-1.19,2.65Zm62.82-4.86c-.64-.73-1.36-1.39-2.14-1.98l.6-.8c.83.62,1.6,1.34,2.29,2.12l-.75.66Zm-59.91-.14l-.74-.67c.7-.77,1.48-1.47,2.32-2.09l.59.81c-.78.57-1.51,1.23-2.16,1.95Zm55.28-3.33c-.88-.41-1.81-.73-2.75-.94l.22-.97c1.01.23,2.01.57,2.95,1.01l-.42.91Zm-50.6-.08l-.41-.91c.95-.42,1.95-.75,2.96-.97l.21.98c-.95.2-1.88.51-2.76.9Zm44.96-1.21h-3.01V0h3.03s-.02,1-.02,1Zm-6.03,0h-3.02V0h3.02v1Zm-6.04,0h-3.02V0h3.02v1Zm-6.04,0h-3.02V0h3.02v1Zm-6.04,0h-3.02V0h3.02v1Zm-6.04,0h-3.02V0h3.02v1Zm-6.04,0h-3.02l-.04-.69L14.99,0h3.03v1Z"/></g></svg>