<?xml version="1.0" encoding="UTF-8"?><svg id="Layer_1" xmlns="http://www.w3.org/2000/svg" viewBox="0 0 15.88 20.26"><defs><style>.cls-1{opacity:.4;}.cls-2{fill:#fff;stroke-width:0px;}</style></defs><g id="Group_7505" class="cls-1"><path id="Path_267" class="cls-2" d="m14.07,7.01v-.89C14.07,2.74,11.33,0,7.95,0,4.57,0,1.83,2.74,1.83,6.12v.89C.78,7.17,0,8.08,0,9.14v8.95c0,1.2.97,2.16,2.17,2.17h11.55c1.2,0,2.16-.97,2.17-2.17v-8.95c0-1.06-.77-1.96-1.81-2.13M7.95,1.44c2.58,0,4.67,2.1,4.68,4.68v.86H3.27v-.86c0-2.58,2.1-4.67,4.68-4.68m6.49,16.65c0,.4-.32.72-.72.72H2.17c-.4,0-.72-.32-.72-.72v-8.95c0-.4.32-.72.72-.72h11.55c.4,0,.72.32.72.72v8.95Z"/><path id="Path_268" class="cls-2" d="m8.32,11.99h-.76c-.19,0-.34.15-.34.34h0v2.57c0,.19.15.34.34.34h.76c.19,0,.34-.15.34-.34h0v-2.57c0-.19-.15-.34-.34-.34h0"/></g></svg>