<?xml version="1.0" encoding="UTF-8"?><svg id="Layer_1" xmlns="http://www.w3.org/2000/svg" xmlns:xlink="http://www.w3.org/1999/xlink" viewBox="0 0 17.79 17.68"><defs><style>.cls-1{clip-path:url(#clippath);}.cls-2{fill:none;}.cls-2,.cls-3{stroke-width:0px;}.cls-3{fill:#fff;}</style><clipPath id="clippath"><rect class="cls-2" y="-.05" width="17.79" height="17.79"/></clipPath></defs><g class="cls-1"><g id="Group_248"><g id="Group_133"><path id="Path_47" class="cls-3" d="m15.32,15.09h-2.65v-4.16c0-.99-.02-2.26-1.38-2.26s-1.59,1.08-1.59,2.2v4.23h-2.65V6.55h2.55v1.17h.03c.52-.89,1.48-1.42,2.51-1.38,2.69,0,3.18,1.77,3.18,4.07v4.69ZM4.05,5.38c-.85,0-1.54-.69-1.54-1.54,0-.85.69-1.54,1.54-1.54.85,0,1.54.69,1.54,1.54,0,.85-.69,1.54-1.54,1.54,0,0,0,0,0,0h0m1.33,9.71h-2.67V6.55h2.66v8.55ZM16.65-.17H1.39C.67-.17.07.4.07,1.12c0,0,0,0,0,0H.07v15.32c0,.72.59,1.3,1.31,1.29,0,0,0,0,0,0h15.26c.72,0,1.32-.57,1.33-1.29V1.12c-.01-.72-.6-1.3-1.33-1.29Z"/></g></g></g></svg>