<?xml version="1.0" encoding="UTF-8"?><svg id="Layer_1" xmlns="http://www.w3.org/2000/svg" xmlns:xlink="http://www.w3.org/1999/xlink" viewBox="0 0 17.79 17.68"><defs><style>.cls-1{clip-path:url(#clippath);}.cls-2{fill:none;}.cls-2,.cls-3{stroke-width:0px;}.cls-3{fill:#fff;}</style><clipPath id="clippath"><rect class="cls-2" x="0" width="17.79" height="17.68"/></clipPath></defs><g class="cls-1"><g id="Group_127"><path id="Path_44" class="cls-3" d="m17.79,8.89C17.79,3.98,13.81-.01,8.9-.01,3.98-.02,0,3.97,0,8.88c0,4.38,3.19,8.11,7.51,8.8v-6.21h-2.26v-2.58h2.26v-1.95c-.18-1.72,1.07-3.27,2.79-3.45,0,0,0,0,0,0,.19-.02.38-.02.57,0,.67,0,1.33.07,1.99.17v2.19h-1.12c-.7-.09-1.35.4-1.44,1.11-.01.09-.01.19,0,.28v1.66h2.46l-.39,2.57h-2.07v6.21c4.32-.69,7.5-4.41,7.51-8.79"/></g></g></svg>