<?xml version="1.0" encoding="UTF-8"?><svg id="Layer_1" xmlns="http://www.w3.org/2000/svg" xmlns:xlink="http://www.w3.org/1999/xlink" viewBox="0 0 17.79 17.68"><defs><style>.cls-1{clip-path:url(#clippath);}.cls-2{fill:none;}.cls-2,.cls-3{stroke-width:0px;}.cls-3{fill:#fff;}</style><clipPath id="clippath"><rect class="cls-2" y="1.56" width="17.79" height="14.57"/></clipPath></defs><g class="cls-1"><g id="Group_249"><g id="Group_131"><path id="Path_46" class="cls-3" d="m17.39,3.24c-.28.12-.57.23-.86.31.35-.4.61-.86.77-1.36.05-.15-.04-.31-.19-.36,0,0,0,0,0,0-.08-.03-.16-.02-.23.03-.62.37-1.3.64-2,.79-1.51-1.48-3.93-1.45-5.4.06-.7.71-1.09,1.67-1.09,2.66,0,.17.01.33.03.49-2.63-.23-5.05-1.52-6.72-3.56-.1-.12-.28-.14-.4-.04-.03.02-.05.05-.07.08-.81,1.4-.65,3.16.39,4.39-.18-.06-.35-.14-.51-.23-.14-.08-.31-.03-.39.11,0,0,0,0,0,0-.02.04-.04.09-.04.14v.05c0,1.35.72,2.6,1.88,3.29-.1-.01-.2-.03-.3-.05-.16-.03-.31.07-.34.23,0,.05,0,.09,0,.14.41,1.29,1.48,2.27,2.8,2.56-1.08.68-2.33,1.04-3.61,1.03-.27,0-.54-.02-.81-.05-.16-.01-.3.1-.31.26,0,0,0,0,0,0-.01.11.04.21.13.27,1.66,1.07,3.59,1.64,5.57,1.63,2.93.07,5.74-1.17,7.68-3.37,1.7-1.93,2.64-4.4,2.67-6.97v-.31c.67-.5,1.25-1.11,1.71-1.81.09-.13.06-.31-.07-.4-.09-.06-.2-.07-.29-.02"/></g></g></g></svg>